<svg xmlns="http://www.w3.org/2000/svg" xmlns:xlink="http://www.w3.org/1999/xlink" width="200" zoomAndPan="magnify" viewBox="0 0 150 74.999997" height="100" preserveAspectRatio="xMidYMid meet" version="1.0"><defs><g/><clipPath id="2ba6fb02a0"><path d="M 0 2.625 L 150 2.625 L 150 72.375 L 0 72.375 Z M 0 2.625 " clip-rule="nonzero"/></clipPath></defs><g clip-path="url(#2ba6fb02a0)"><path fill="#cf0f0f" d="M 9.300781 72.375 L 140.695312 72.375 C 145.769531 72.375 149.898438 68.246094 149.898438 63.171875 L 149.898438 11.828125 C 149.898438 6.753906 145.769531 2.625 140.695312 2.625 L 118.125 2.625 C 117.09375 2.625 116.125 3.027344 115.398438 3.757812 C 114.667969 4.488281 114.269531 5.460938 114.273438 6.492188 C 114.28125 8.304688 114.289062 7.980469 114.296875 9.335938 C 114.300781 10.621094 114.308594 10.695312 114.308594 11.433594 C 111.722656 11.71875 110.359375 13 109.660156 14.089844 C 108.78125 15.453125 108.597656 16.988281 108.597656 18.03125 L 108.597656 21.261719 C 108.597656 24.574219 107.742188 27.898438 106.125 30.878906 C 105.296875 32.402344 104.863281 34.128906 104.867188 35.875 C 104.886719 41.5625 109.527344 46.226562 115.214844 46.265625 C 115.238281 46.265625 115.265625 46.265625 115.292969 46.265625 C 118.0625 46.265625 120.667969 45.195312 122.632812 43.242188 C 124.621094 41.269531 125.714844 38.640625 125.714844 35.84375 C 125.714844 34.039062 125.246094 32.261719 124.359375 30.703125 C 122.804688 27.96875 121.984375 24.933594 121.984375 21.933594 L 121.984375 20.652344 C 121.984375 19.246094 120.839844 18.101562 119.433594 18.101562 L 117.25 18.101562 C 115.84375 18.101562 114.699219 19.246094 114.699219 20.652344 L 114.699219 34.550781 C 114.699219 34.609375 114.648438 34.660156 114.589844 34.660156 L 112.539062 34.660156 C 111.960938 34.660156 111.492188 35.128906 111.492188 35.703125 C 111.492188 36.28125 111.960938 36.75 112.539062 36.75 L 114.589844 36.75 C 115.804688 36.75 116.789062 35.765625 116.789062 34.550781 L 116.789062 20.652344 C 116.789062 20.398438 116.996094 20.191406 117.25 20.191406 L 119.433594 20.191406 C 119.6875 20.191406 119.894531 20.398438 119.894531 20.652344 L 119.894531 21.933594 C 119.894531 25.296875 120.808594 28.6875 122.539062 31.734375 C 123.25 32.980469 123.621094 34.402344 123.621094 35.84375 C 123.621094 38.082031 122.746094 40.179688 121.160156 41.757812 C 119.589844 43.316406 117.503906 44.175781 115.292969 44.175781 C 115.269531 44.175781 115.25 44.175781 115.230469 44.175781 C 110.683594 44.140625 106.972656 40.417969 106.960938 35.871094 C 106.957031 34.472656 107.304688 33.09375 107.964844 31.875 C 109.746094 28.589844 110.691406 24.921875 110.691406 21.261719 L 110.691406 18.03125 C 110.691406 15.964844 111.5 13.492188 115.351562 13.464844 C 115.699219 13.464844 116.367188 13.234375 116.394531 12.382812 C 116.398438 12.328125 116.398438 12.246094 116.398438 12.140625 C 116.402344 11.953125 116.402344 11.671875 116.398438 11.308594 C 116.398438 10.59375 116.394531 10.617188 116.386719 9.328125 C 116.378906 7.972656 116.371094 8.292969 116.363281 6.484375 C 116.363281 6.011719 116.546875 5.566406 116.878906 5.234375 C 117.210938 4.898438 117.652344 4.714844 118.125 4.714844 L 140.695312 4.714844 C 144.617188 4.714844 147.808594 7.90625 147.808594 11.828125 L 147.808594 63.171875 C 147.808594 67.09375 144.617188 70.285156 140.695312 70.285156 L 9.300781 70.285156 C 5.378906 70.285156 2.191406 67.09375 2.191406 63.171875 L 2.191406 11.828125 C 2.191406 7.90625 5.378906 4.714844 9.300781 4.714844 L 108.667969 4.714844 C 109.246094 4.714844 109.714844 4.25 109.714844 3.671875 C 109.714844 3.09375 109.246094 2.625 108.667969 2.625 L 9.300781 2.625 C 4.226562 2.625 0.101562 6.753906 0.101562 11.828125 L 0.101562 63.171875 C 0.101562 68.246094 4.226562 72.375 9.300781 72.375 " fill-opacity="1" fill-rule="nonzero"/></g><path fill="#cf0f0f" d="M 115.292969 56.792969 C 115.867188 56.792969 116.335938 56.324219 116.335938 55.746094 L 116.335938 49.75 C 116.335938 49.171875 115.867188 48.703125 115.292969 48.703125 C 114.714844 48.703125 114.246094 49.171875 114.246094 49.75 L 114.246094 55.746094 C 114.246094 56.324219 114.714844 56.792969 115.292969 56.792969 " fill-opacity="1" fill-rule="nonzero"/><path fill="#cf0f0f" d="M 105.164062 54.082031 C 105.527344 54.082031 105.878906 53.894531 106.070312 53.558594 L 109.070312 48.363281 C 109.359375 47.863281 109.1875 47.222656 108.6875 46.933594 C 108.1875 46.644531 107.546875 46.816406 107.257812 47.316406 L 104.257812 52.511719 C 103.972656 53.011719 104.140625 53.652344 104.640625 53.941406 C 104.808594 54.035156 104.988281 54.082031 105.164062 54.082031 " fill-opacity="1" fill-rule="nonzero"/><path fill="#cf0f0f" d="M 97.753906 46.667969 C 97.929688 46.667969 98.109375 46.621094 98.273438 46.527344 L 103.46875 43.527344 C 103.96875 43.238281 104.140625 42.601562 103.851562 42.101562 C 103.5625 41.601562 102.921875 41.429688 102.421875 41.71875 L 97.230469 44.714844 C 96.730469 45.003906 96.558594 45.644531 96.847656 46.144531 C 97.039062 46.480469 97.390625 46.667969 97.753906 46.667969 " fill-opacity="1" fill-rule="nonzero"/><path fill="#cf0f0f" d="M 95.039062 36.542969 L 101.035156 36.542969 C 101.613281 36.542969 102.082031 36.074219 102.082031 35.496094 C 102.082031 34.917969 101.613281 34.449219 101.035156 34.449219 L 95.039062 34.449219 C 94.460938 34.449219 93.992188 34.917969 93.992188 35.496094 C 93.992188 36.074219 94.460938 36.542969 95.039062 36.542969 " fill-opacity="1" fill-rule="nonzero"/><path fill="#cf0f0f" d="M 129.546875 36.542969 L 135.542969 36.542969 C 136.121094 36.542969 136.589844 36.074219 136.589844 35.496094 C 136.589844 34.917969 136.121094 34.449219 135.542969 34.449219 L 129.546875 34.449219 C 128.96875 34.449219 128.5 34.917969 128.5 35.496094 C 128.5 36.074219 128.96875 36.542969 129.546875 36.542969 " fill-opacity="1" fill-rule="nonzero"/><path fill="#cf0f0f" d="M 132.828125 46.667969 C 133.191406 46.667969 133.542969 46.480469 133.734375 46.144531 C 134.023438 45.644531 133.851562 45.003906 133.351562 44.714844 L 128.160156 41.71875 C 127.660156 41.429688 127.019531 41.601562 126.730469 42.101562 C 126.441406 42.601562 126.613281 43.238281 127.113281 43.527344 L 132.308594 46.527344 C 132.472656 46.621094 132.652344 46.667969 132.828125 46.667969 " fill-opacity="1" fill-rule="nonzero"/><path fill="#cf0f0f" d="M 125.417969 54.082031 C 125.59375 54.082031 125.777344 54.035156 125.941406 53.941406 C 126.441406 53.652344 126.613281 53.011719 126.324219 52.511719 L 123.324219 47.316406 C 123.035156 46.816406 122.394531 46.644531 121.894531 46.933594 C 121.394531 47.222656 121.222656 47.863281 121.511719 48.363281 L 124.511719 53.558594 C 124.707031 53.894531 125.058594 54.082031 125.417969 54.082031 " fill-opacity="1" fill-rule="nonzero"/><g fill="#cf0f0f" fill-opacity="1"><g transform="translate(6.319692, 45.374997)"><g><path d="M 6.4375 -14.09375 C 8.25 -14.09375 9.882812 -13.613281 11.34375 -12.65625 L 10.359375 -10.578125 C 8.929688 -11.441406 7.566406 -11.875 6.265625 -11.875 C 5.554688 -11.875 5 -11.75 4.59375 -11.5 C 4.1875 -11.25 3.984375 -10.890625 3.984375 -10.421875 C 3.984375 -9.953125 4.164062 -9.550781 4.53125 -9.21875 C 4.90625 -8.894531 5.375 -8.65625 5.9375 -8.5 C 6.5 -8.351562 7.101562 -8.160156 7.75 -7.921875 C 8.40625 -7.691406 9.015625 -7.445312 9.578125 -7.1875 C 10.140625 -6.925781 10.601562 -6.519531 10.96875 -5.96875 C 11.332031 -5.414062 11.515625 -4.742188 11.515625 -3.953125 C 11.515625 -2.734375 11.023438 -1.753906 10.046875 -1.015625 C 9.066406 -0.285156 7.796875 0.078125 6.234375 0.078125 C 5.171875 0.078125 4.140625 -0.117188 3.140625 -0.515625 C 2.140625 -0.921875 1.265625 -1.460938 0.515625 -2.140625 L 1.546875 -4.1875 C 2.242188 -3.53125 3.015625 -3.023438 3.859375 -2.671875 C 4.710938 -2.316406 5.519531 -2.140625 6.28125 -2.140625 C 7.101562 -2.140625 7.742188 -2.289062 8.203125 -2.59375 C 8.671875 -2.894531 8.90625 -3.3125 8.90625 -3.84375 C 8.90625 -4.320312 8.71875 -4.722656 8.34375 -5.046875 C 7.96875 -5.378906 7.5 -5.617188 6.9375 -5.765625 C 6.375 -5.921875 5.765625 -6.109375 5.109375 -6.328125 C 4.460938 -6.546875 3.859375 -6.78125 3.296875 -7.03125 C 2.734375 -7.28125 2.265625 -7.675781 1.890625 -8.21875 C 1.523438 -8.769531 1.34375 -9.429688 1.34375 -10.203125 C 1.34375 -11.390625 1.804688 -12.332031 2.734375 -13.03125 C 3.671875 -13.738281 4.90625 -14.09375 6.4375 -14.09375 Z M 6.4375 -14.09375 "/></g></g></g><g fill="#cf0f0f" fill-opacity="1"><g transform="translate(18.754784, 45.374997)"><g><path d="M 8.078125 0 L 8.078125 -1.296875 C 7.316406 -0.367188 6.144531 0.09375 4.5625 0.09375 C 3.425781 0.09375 2.515625 -0.210938 1.828125 -0.828125 C 1.148438 -1.453125 0.8125 -2.242188 0.8125 -3.203125 C 0.8125 -4.171875 1.164062 -4.941406 1.875 -5.515625 C 2.582031 -6.085938 3.570312 -6.382812 4.84375 -6.40625 L 8.0625 -6.40625 L 8.0625 -6.71875 C 8.0625 -7.394531 7.84375 -7.921875 7.40625 -8.296875 C 6.976562 -8.671875 6.347656 -8.859375 5.515625 -8.859375 C 4.492188 -8.859375 3.445312 -8.5 2.375 -7.78125 L 1.4375 -9.375 C 2.25 -9.851562 2.976562 -10.195312 3.625 -10.40625 C 4.269531 -10.613281 5.066406 -10.71875 6.015625 -10.71875 C 7.378906 -10.71875 8.429688 -10.382812 9.171875 -9.71875 C 9.921875 -9.0625 10.300781 -8.148438 10.3125 -6.984375 L 10.34375 0 Z M 5.046875 -1.71875 C 5.859375 -1.71875 6.546875 -1.90625 7.109375 -2.28125 C 7.671875 -2.664062 7.988281 -3.148438 8.0625 -3.734375 L 8.0625 -4.71875 L 5.1875 -4.71875 C 4.425781 -4.71875 3.867188 -4.609375 3.515625 -4.390625 C 3.160156 -4.171875 2.984375 -3.804688 2.984375 -3.296875 C 2.984375 -2.816406 3.164062 -2.429688 3.53125 -2.140625 C 3.894531 -1.859375 4.398438 -1.71875 5.046875 -1.71875 Z M 5.046875 -1.71875 "/></g></g></g><g fill="#cf0f0f" fill-opacity="1"><g transform="translate(30.470157, 45.374997)"><g><path d="M 7.921875 -10.71875 C 9.160156 -10.71875 10.128906 -10.351562 10.828125 -9.625 C 11.523438 -8.90625 11.875 -7.90625 11.875 -6.625 L 11.875 0 L 9.578125 0 L 9.578125 -5.984375 C 9.578125 -6.785156 9.347656 -7.414062 8.890625 -7.875 C 8.441406 -8.332031 7.816406 -8.5625 7.015625 -8.5625 C 6.160156 -8.550781 5.460938 -8.273438 4.921875 -7.734375 C 4.390625 -7.203125 4.082031 -6.507812 4 -5.65625 L 4 0 L 1.703125 0 L 1.703125 -10.640625 L 4 -10.640625 L 4 -8.59375 C 4.71875 -10.007812 6.023438 -10.71875 7.921875 -10.71875 Z M 7.921875 -10.71875 "/></g></g></g><g fill="#cf0f0f" fill-opacity="1"><g transform="translate(43.724932, 45.374997)"><g><path d="M 11.84375 -14.84375 L 11.84375 0 L 9.546875 0 L 9.546875 -1.8125 C 8.753906 -0.539062 7.503906 0.09375 5.796875 0.09375 C 4.273438 0.09375 3.046875 -0.40625 2.109375 -1.40625 C 1.171875 -2.414062 0.703125 -3.734375 0.703125 -5.359375 C 0.703125 -6.960938 1.164062 -8.257812 2.09375 -9.25 C 3.03125 -10.238281 4.253906 -10.734375 5.765625 -10.734375 C 7.460938 -10.734375 8.722656 -10.085938 9.546875 -8.796875 L 9.546875 -14.84375 Z M 3.921875 -2.78125 C 4.535156 -2.132812 5.320312 -1.8125 6.28125 -1.8125 C 7.238281 -1.8125 8.019531 -2.132812 8.625 -2.78125 C 9.238281 -3.4375 9.546875 -4.269531 9.546875 -5.28125 C 9.546875 -6.300781 9.238281 -7.140625 8.625 -7.796875 C 8.019531 -8.453125 7.238281 -8.78125 6.28125 -8.78125 C 5.320312 -8.78125 4.535156 -8.453125 3.921875 -7.796875 C 3.316406 -7.140625 3.007812 -6.300781 3 -5.28125 C 3.007812 -4.269531 3.316406 -3.4375 3.921875 -2.78125 Z M 3.921875 -2.78125 "/></g></g></g><g fill="#cf0f0f" fill-opacity="1"><g transform="translate(57.359548, 45.374997)"><g><path d="M 1.875 -14.6875 C 2.132812 -14.945312 2.457031 -15.078125 2.84375 -15.078125 C 3.226562 -15.078125 3.546875 -14.945312 3.796875 -14.6875 C 4.054688 -14.425781 4.1875 -14.09375 4.1875 -13.6875 C 4.1875 -13.28125 4.054688 -12.945312 3.796875 -12.6875 C 3.546875 -12.425781 3.226562 -12.296875 2.84375 -12.296875 C 2.457031 -12.296875 2.132812 -12.425781 1.875 -12.6875 C 1.625 -12.945312 1.5 -13.28125 1.5 -13.6875 C 1.5 -14.09375 1.625 -14.425781 1.875 -14.6875 Z M 3.984375 0 L 1.703125 0 L 1.703125 -10.640625 L 3.984375 -10.640625 Z M 3.984375 0 "/></g></g></g><g fill="#cf0f0f" fill-opacity="1"><g transform="translate(63.037304, 45.374997)"><g><path d="M 7.921875 -10.71875 C 9.160156 -10.71875 10.128906 -10.351562 10.828125 -9.625 C 11.523438 -8.90625 11.875 -7.90625 11.875 -6.625 L 11.875 0 L 9.578125 0 L 9.578125 -5.984375 C 9.578125 -6.785156 9.347656 -7.414062 8.890625 -7.875 C 8.441406 -8.332031 7.816406 -8.5625 7.015625 -8.5625 C 6.160156 -8.550781 5.460938 -8.273438 4.921875 -7.734375 C 4.390625 -7.203125 4.082031 -6.507812 4 -5.65625 L 4 0 L 1.703125 0 L 1.703125 -10.640625 L 4 -10.640625 L 4 -8.59375 C 4.71875 -10.007812 6.023438 -10.71875 7.921875 -10.71875 Z M 7.921875 -10.71875 "/></g></g></g><g fill="#cf0f0f" fill-opacity="1"><g transform="translate(76.29208, 45.374997)"><g><path d="M 6.265625 -10.71875 C 7.898438 -10.71875 9.226562 -10.21875 10.25 -9.21875 C 11.28125 -8.226562 11.796875 -6.925781 11.796875 -5.3125 C 11.796875 -3.71875 11.28125 -2.421875 10.25 -1.421875 C 9.226562 -0.421875 7.898438 0.078125 6.265625 0.078125 C 4.609375 0.078125 3.265625 -0.421875 2.234375 -1.421875 C 1.210938 -2.421875 0.703125 -3.71875 0.703125 -5.3125 C 0.703125 -6.925781 1.210938 -8.226562 2.234375 -9.21875 C 3.265625 -10.21875 4.609375 -10.71875 6.265625 -10.71875 Z M 6.265625 -8.734375 C 5.296875 -8.734375 4.507812 -8.410156 3.90625 -7.765625 C 3.300781 -7.128906 3 -6.304688 3 -5.296875 C 3 -4.273438 3.300781 -3.441406 3.90625 -2.796875 C 4.507812 -2.160156 5.289062 -1.84375 6.25 -1.84375 C 7.21875 -1.84375 8 -2.160156 8.59375 -2.796875 C 9.195312 -3.441406 9.5 -4.273438 9.5 -5.296875 C 9.5 -6.304688 9.195312 -7.128906 8.59375 -7.765625 C 7.988281 -8.410156 7.210938 -8.734375 6.265625 -8.734375 Z M 6.265625 -8.734375 "/></g></g></g></svg>